<svg version="1.2" xmlns="http://www.w3.org/2000/svg" viewBox="0 0 1000 600" width="1000" height="600">
	<title>1000_F_318065453_6IYnxkx8xA51PlucgYU8LzdydKUoo2bk</title>
	<style>
		.s0 { opacity: 1;fill: #272727 } 
		.s1 { fill: #000000 } 
	</style>
	<path id="Path 0" class="s0" d="m822.7 271.3c60.2 0.2 78.5 0.5 79.5 1.4 1.1 1 1 1.3-0.2 1.7-0.8 0.3-29 1.2-62.5 2.2-53.5 1.4-61.2 1.8-62.8 3.3-1 0.9-1.8 2.5-1.8 3.6 0 1.1 0.8 2.7 1.7 3.5 1.5 1.3 10.6 1.6 62.8 2.2 33.6 0.4 61.8 1 62.6 1.3 1 0.4 1.1 0.9 0.5 1.4-0.6 0.5-12.9 1.2-27.5 1.5-14.6 0.3-42.3 0.9-61.5 1.2-19.3 0.3-35.6 0.8-36.3 1-0.6 0.2-1.5 1.6-1.8 3.1-0.4 2-0.1 3.3 1.2 4.5 1.7 1.4 8.3 1.7 62.9 2.5 33.5 0.5 61.7 1.3 62.5 1.7 1 0.5 1.1 1.1 0.5 1.7-0.6 0.4-28.5 1.1-62 1.5-49.3 0.5-61.4 0.9-63.3 2-1.3 0.9-2.2 2.4-2.2 3.9 0 1.5 0.9 3 2.2 3.9 1.8 1 15.9 1.7 63.3 3 35.2 0.9 61.4 2 62 2.6q1 1-0.5 1.5c-0.8 0.3-37.3 0.7-160.5 1l-6-2.4c-4-1.7-8.2-4.6-12.5-8.6-3.9-3.7-8.3-6.9-11-7.8-2.5-0.9-7.4-2.1-11-2.7-3.6-0.5-9.3-1-19-1v-6.3c0-6.2 0-6.2 2.8-5.8 1.5 0.2 7.1-0.2 12.4-0.8 5.4-0.6 12.2-2 15-3.1 3.5-1.3 7-3.7 10.3-7.1 2.7-2.8 7.1-6.2 9.7-7.5 2.7-1.3 6.5-2.8 8.5-3.3 2.2-0.5 37.3-0.9 82-0.8z"/>
	<path id="Shape 1" class="s1" d="m286 312l-137 7c0 0-26.4 6.4-27-18-0.6-24.4 28-21 28-21l135 5z"/>
</svg>