
<svg version="1.2" xmlns="http://www.w3.org/2000/svg" viewBox="0 0 530 175" width="530" height="175">
	<title>Background</title>
	<style>
		.s0 { fill: #000000 } 
	</style>
	<path id="Path 0" fill-rule="evenodd" class="s0" d="m13 47h86v110h-86zm26.6 13.9c-1 0.9-2.7 3.3-3.7 5.3-1.1 2.3-1.9 5.9-1.9 9.1 0 3.4 0.7 6.7 2.2 9.7 1.3 2.5 3.4 5 4.6 5.5 2.3 1 2.4 1.3 1.8 8.5-0.3 4.1-0.7 15.4-0.8 25-0.1 9.6 0.1 18.1 0.5 18.8 0.4 0.6 1.6 1.2 2.7 1.2 1.1 0 2.4-0.8 2.8-1.7 0.5-1 0.3-12.4-0.4-25.8-0.6-13.2-1-24.3-0.8-24.8 0.2-0.4 1.1-0.7 1.9-0.7 0.8 0 2.6-1.5 3.9-3.2 1.4-1.8 3.1-5.4 3.8-8 1-3.9 1.1-5.7 0-9.3-0.6-2.5-2-5.6-3-7-0.9-1.3-3.2-3.1-5-4-1.7-0.8-3.3-1.5-3.5-1.4-0.1 0-0.9 0.3-1.7 0.6-0.8 0.3-2.3 1.3-3.4 2.2zm28.5 6.1c-1.6 3.4-2.1 6.6-2.1 13 0 5.5 0.8 11.3 2.1 16.5 1.2 4.4 2.2 9.3 2.2 11 0.1 1.7-0.3 10.2-0.8 19l-0.8 16c4.4 2.5 5.3 2.5 7.7 1.3l2.9-1.3c-1-17-1.6-35.8-2-52.7-0.4-24-0.9-30.8-1.9-31.2-0.7-0.2-2.2 0.5-3.3 1.7-1.1 1.2-2.9 4.2-4 6.7zm9.4-45.6c0.5 0.1 1.1 4.2 1.5 17.6h-25.5c-14 0-25.7-0.3-25.9-0.7-0.2-0.5 4.6-1.8 10.7-3.1 6.2-1.3 14.8-3.6 19.1-5 4.4-1.5 10.5-4.1 13.5-5.9 3.1-1.7 6-3 6.6-2.9z"/>
	<path id="Path 0" fill-rule="evenodd" class="s0" d="m150.4 4h50.1l14.5 14.5v74.5h-22v-25h-34v25h-21.5l-0.8-6.2c-0.4-3.5-0.8-20.2-1.2-68.3zm9.1 44.5l33.5 0.5v-26h-34.1zm74.5-44.5l63.5 0.1 14.6 14.4-0.1 61-13.5 13.6-64.5-0.1zm21 70h34v-51h-34zm75-70h22l1.8 2.9c0.9 1.6 5.8 10.6 10.7 20 5 9.4 9.3 17.1 9.5 17.2 0.3 0 4-6.4 8.2-14.3 4.2-7.8 9-16.8 13.3-25.8h22.5v89h-22v-23c0-14.3-0.3-23.1-1-23.5-0.5-0.2-4 5.5-14.5 26l-12.5 0.5-4.6-9.2c-2.5-5.1-5.8-11.3-7.2-13.8-2.5-4.3-2.6-4.4-3.3-2-0.4 1.4-0.7 12.1-0.9 45h-22zm120.5 0l53 0.1 13.6 13.4-0.1 13.5-16.5 0.1-8-8.1h-32.5v16h43.5l13.5 15v25.5l-13.5 13.6-54.5-0.1-5.1-5.7c-2.8-3.2-5.5-6.8-6-8-0.5-1.2-0.9-4.5-0.9-12.3h6.8c6.1 0 7.2 0.3 17.2 7h33v-16l-44.5 0.1-12.3-12.6-0.7-27.4z"/>
	<path id="Path 0" class="s0" d="m151 113v22l11.4-0.5 12.2-21 13.9-0.6-0.7 4.3c-0.5 2.4-3.1 8.2-6.3 13.3-3 4.9-5.4 9.9-5.5 11 0 1.1 2.5 6.3 5.5 11.5 3.1 5.2 5.9 11.4 7 18h-13l-13.5-23h-11v23h-15l-0.2-28.3c-0.1-15.6 0.2-28.7 0.7-29 0.5-0.4 3.9-0.7 14.5-0.7zm46 0h23v5c0 4-0.4 5.2-2 6-1.9 0.9-2 2-2 17.5 0 15.5 0.1 16.6 2 17.5 1.6 0.8 2 2 2 12h-23v-5.5c0-4.5 0.4-5.7 2-6.5 1.9-0.9 2-2 2-17.5 0-15.5-0.1-16.6-2-17.5-1.6-0.8-2-2-2-6zm30 0h48v12h-17v46h-14v-46h-17v-6zm64.4 0l32.1-0.1 4.2 4.6c2.9 3 4.3 5.4 4.3 7.3 0.1 1.5-0.7 3.4-1.6 4.2-1.2 1.1-2.7 1.3-5.8 0.8-2.2-0.4-4.9-1.6-6-2.5-1.4-1.4-3.9-1.9-21.6-2.3v33h9.2c7.8 0.1 9.7-0.3 11.8-1.9 1.4-1.1 3.9-2.3 5.5-2.7 1.6-0.3 4.2-0.4 5.7 0 2.3 0.5 2.8 1.1 2.8 3.6 0 2.2-1.3 4.4-10.5 14.1l-29-0.1-9.5-9.5-0.4-39.9 4.4-4.3zm52.6 0h14v22h22v-22h14v58h-14v-23h-22v23h-14v-29zm62 0h48v12h-34v10h29v13h-29v10h34v13h-38.5l-9.5-9.5v-24.3zm61 0h12.5l8.5 12.2c4.6 6.7 9.6 13.5 11 15.1 1.8 2.2 2.7 2.6 3.2 1.6 0.4-0.8 0.7-7.5 0.8-28.9h14v58l-12.5 0.1-22-32.2-0.7 3.8c-0.4 2.1-0.7 9.4-0.8 28.3h-14v-29z"/>
</svg>